/* XPM */
static char *_1a3b4b59b5d4d98e2b2b46fcecf7f24shYPI4ci1EdrDsQk[] = {
/* columns rows colors chars-per-pixel */
"32 32 8 1 ",
"  c None",
". c black",
"X c #222A5C",
"o c #2C5B6D",
"O c #158968",
"+ c #46C657",
"@ c #839740",
"# c #C9EC85",
/* pixels */
"                                ",
"                                ",
"                                ",
"                                ",
"                                ",
"                                ",
"                                ",
"                                ",
"                                ",
"                ...             ",
"                .++..           ",
"                .++++...        ",
"               .+++++++.        ",
"              .###++++.         ",
"             .######oX.         ",
"         ....+#####@X.          ",
"         .++++++##@@.           ",
"          .O+++++o@@.           ",
"          .XoO++oX@.            ",
"         .OOOoXXXo.             ",
"         .OOOOOOo.              ",
"          ...OOO.               ",
"             ...                ",
"                                ",
"                                ",
"                                ",
"                                ",
"                                ",
"                                ",
"                                ",
"                                ",
"                                "
};
