/* XPM */
static char *_feab7252b254e8ac5f1e122b2e3fea65Iq3ohrTqsbAi20f[] = {
/* columns rows colors chars-per-pixel */
"32 32 7 1 ",
"  c None",
". c black",
"X c #222A5C",
"o c #2C5B6D",
"O c #158968",
"+ c #46C657",
"@ c #C9EC85",
/* pixels */
"                                ",
"                                ",
"                                ",
"                                ",
"                                ",
"                                ",
"                                ",
"                                ",
"            ...                 ",
"            .++..               ",
"            .++++...            ",
"            .++++++.            ",
"            .@@++++.            ",
"           .@@@@@@@.            ",
"           .+++@@@.             ",
"           .++++++.             ",
"           .O+++++.             ",
"           .XoO+++.             ",
"          .OOOoXXo.             ",
"          .OOOOOOO.             ",
"           ....OOO.             ",
"               ...              ",
"                                ",
"                                ",
"                                ",
"                                ",
"                                ",
"                                ",
"                                ",
"                                ",
"                                ",
"                                "
};
