/* XPM */
static char *_66c93bb7dda4e8ec44ed4513b168faemZ86n6D2fuukqZRD[] = {
/* columns rows colors chars-per-pixel */
"32 32 7 1 ",
"  c None",
". c black",
"X c #222A5C",
"o c #2C5B6D",
"O c #158968",
"+ c #46C657",
"@ c #C9EC85",
/* pixels */
"                                ",
"                                ",
"                                ",
"                                ",
"                                ",
"                                ",
"                                ",
"               ...              ",
"             ..++.              ",
"          ...++++.              ",
"          .++++++.              ",
"          .++++@@.              ",
"          .@@@@@@@.             ",
"           .@@@+++.             ",
"           .++++++.             ",
"           .+++++O.             ",
"           .+++OoX.             ",
"           .oXXoOOO.            ",
"           .OOOOOOO.            ",
"           .OOO....             ",
"            ...                 ",
"                                ",
"                                ",
"                                ",
"                                ",
"                                ",
"                                ",
"                                ",
"                                ",
"                                ",
"                                ",
"                                "
};
