/* XPM */
static char *_c961994f08743ab9ad51567fda5804fzMRG6bFac9FWQo31[] = {
/* columns rows colors chars-per-pixel */
"32 32 8 1 ",
"  c None",
". c black",
"X c #222A5C",
"o c #2C5B6D",
"O c #158968",
"+ c #46C657",
"@ c #839740",
"# c #C9EC85",
/* pixels */
"                                ",
"                                ",
"                                ",
"                                ",
"                                ",
"                                ",
"                                ",
"              ...               ",
"            ..++.               ",
"         ...++++.               ",
"         .+++++++.              ",
"          .+++###.              ",
"          .o######.             ",
"           .@####++...          ",
"           .@@#++++++.          ",
"            .@o++++O.           ",
"            .@o++OoX.           ",
"             .XXXoOOO.          ",
"             .oOOOOOO.          ",
"              .OOO...           ",
"               ...              ",
"                                ",
"                                ",
"                                ",
"                                ",
"                                ",
"                                ",
"                                ",
"                                ",
"                                ",
"                                ",
"                                "
};
