/* XPM */
static char *_272cf5c80d743599e09c60b15cef589L7f1VOyHcIz4oBRf[] = {
/* columns rows colors chars-per-pixel */
"32 32 8 1 ",
"  c None",
". c black",
"X c #222A5C",
"o c #2C5B6D",
"O c #158968",
"+ c #46C657",
"@ c #839740",
"# c #C9EC85",
/* pixels */
"                                ",
"                                ",
"                                ",
"                                ",
"                                ",
"                                ",
"                                ",
"                                ",
"                                ",
"           ..                   ",
"          .++.                  ",
"         .++++..                ",
"        .++++++#..              ",
"       .o++++#####.....         ",
"       .oo++######++++.         ",
"       .ooo#####+++++O.         ",
"        ..oX@###+++OoX..        ",
"          ..@@o+o++oOOO.        ",
"            ..@XXXXoOO.         ",
"              .ooOOOO.          ",
"               ..OOO.           ",
"                 ...            ",
"                                ",
"                                ",
"                                ",
"                                ",
"                                ",
"                                ",
"                                ",
"                                ",
"                                ",
"                                "
};
