/* XPM */
static char *_ba9fe31eb59479cb3b6758af2c19a85qxOMKYSIdfsb4Df5[] = {
/* columns rows colors chars-per-pixel */
"32 32 8 1 ",
"  c None",
". c black",
"X c #222A5C",
"o c #2C5B6D",
"O c #158968",
"+ c #46C657",
"@ c #839740",
"# c #C9EC85",
/* pixels */
"                                ",
"                                ",
"                                ",
"                                ",
"                                ",
"                                ",
"                                ",
"                                ",
"                                ",
"                                ",
"                                ",
"                    ..          ",
"          ..     ...++.         ",
"         .++.....+++++.         ",
"         .++++###+++++.         ",
"        .+++++###+++++.         ",
"        .++++####++++O.         ",
"        .++++###+++++.          ",
"        .Xo++###ooXXO.          ",
"        .XXXoX@@@XoOO.          ",
"        .ooooo.......           ",
"        .oo...                  ",
"        ...                     ",
"                                ",
"                                ",
"                                ",
"                                ",
"                                ",
"                                ",
"                                ",
"                                ",
"                                "
};
