/* XPM */
static char *d7f51a066df8443fde5a50d8d4d65321TnH8pme9BMJc8ply[] = {
/* columns rows colors chars-per-pixel */
"32 32 9 1 ",
"  c #D22F1E",
". c #FFDBA5",
"X c #38002C",
"o c #FF8142",
"O c #683C34",
"+ c #A36D3E",
"@ c #CCAC68",
"# c black",
"$ c None",
/* pixels */
"$$$$$$$$$$$$$$$$$$$$$$$$$$$$$$$$",
"$$$$$$$$$$$$$$$$$$$$$$$$$$$$$$$$",
"$$$$$$$$$$$$$$$$$$$$$$$$$$$$$$$$",
"$$$$$$$$$$$$$$$$$$$$$$$$$$$$$$$$",
"$$$$$$$$$$$$$$$$$$$$$$$$$$$$$$$$",
"$$$$$$$$$$$$$$$$$$$$$$$$$$$$$$$$",
"$$$$$$$$$$$$$$$$$$$$$$$$$$$$$$$$",
"$$$$$$$$$$$$$$$$$$$$$$$$$$$$$$$$",
"$$$$$$$$$$$$$$$$$$$$$$$$$$$$$$$$",
"$$$$$$$$$$$$$$$$$$$$$$$$$$$$$$$$",
"$$$$$$$$$$$$$$$$$$$$$$$$$$$$$$$$",
"$$$$$$$$$$$$$$$$$$$$$$$$$$$$$$$$",
"$$$$$$$$$$$$$$$$$$$$$$$$$$$$$$$$",
"$$$$$$$$$$$$$$$$$$$$$$$$$$$$$$$$",
"$$$$$$$$$$$$$$$$$$$$$$$$$$$$$$$$",
"$$$$$$$$$$$$$$$$$$$$$$$$$$$$$$$$",
"$$$##########################$$$",
"$$$#@@@@@@@@......oooo......#$$$",
"$$$#++++++++@@@@@@    @@@@@@#$$$",
"$$$#++OXXX++@@@@@@    @@@@@@#$$$",
"$$$#++OXXX++@@@@@@    @@@@@@#$$$",
"$$$#++++++++@@@@@@    @@@@@@#$$$",
"$$$#++++++++@@@@@@@@@@@@@@@@#$$$",
"$$$#++++++++@@@@@@@@@@@@@@@@#$$$",
"$$$#++++++++@@@@@@@@@@@@@@@@#$$$",
"$$$#++++++++@@@@@@@@@@@@@@@@#$$$",
"$$$#++++++++@@@@@@@@@@@@@@@@#$$$",
"$$$#++++++++@@@@@@@@@@@@@@@@#$$$",
"$$$#++++++++@@@@@@@@@@@@@@@@#$$$",
"$$$#++++++++@@@@@@@@@@@@@@@@#$$$",
"$$$#++++++++@@@@@@@@@@@@@@@@#$$$",
"$$$##########################$$$"
};
