/* XPM */
static char *_caecd3e6a004117b4a7a4ddc7adb5a8rLgiHH3zXzjAK1s6[] = {
/* columns rows colors chars-per-pixel */
"32 32 6 1 ",
"  c None",
". c black",
"X c #3A0911",
"o c #811426",
"O c #A11B31",
"+ c white",
/* pixels */
"                                ",
"                                ",
"                                ",
"                                ",
"            XXXXXXX             ",
"           XoOOOOOOX            ",
"          XoOOOXXXXOX           ",
"         XoOOOX....XOX          ",
"         XoOOX......XOX         ",
"        XooOOX......XOX         ",
"        XoooOX.+...+XOX         ",
"        XoXoOX.+...+XOX         ",
"        XoXoOX......XoX         ",
"         XXooOX.....XoX         ",
"           XoooX...XoX          ",
"           XXXooXXXoX           ",
"          XoOOOOOOOOoX          ",
"         XoOOOOOOOOOoX          ",
"         XoOOOOOOOOOoX          ",
"         XOOOOOOOOOOOX          ",
"        XoOOOOOOOOOOOX          ",
"        XoOOOOOOoOOOOoX         ",
"        XoOOOOOoXoOOooX         ",
"       XoooOoOooXooOooX         ",
"       XooooOooX.XooooX         ",
"       XoXooooX..XooXoX         ",
"        XXoXooX...XooX          ",
"         XX XXX  .XXX           ",
"            ..   ..             ",
"          ..      .             ",
"                  .             ",
"                  .             "
};
