/* XPM */
static char *ab06ca7fa0eb46cdaa38331022865520Fz9NGz50QeSWojA6[] = {
/* columns rows colors chars-per-pixel */
"32 36 4 1 ",
"  c #8BABBF",
". c black",
"X c #222A5C",
"o c #566A89",
/* pixels */
"................................",
".           o           ooooooo.",
".oooooooooooXoooooooooooXXXXXXX.",
".oXXXXXXXXXoXoXXXXXXXXXoXXXXXXX.",
".oooooooooooXoooooooooooXXXXXXX.",
".oooooooooooXoooooooooooXXXXXXX.",
".oXXXXXXXXXoXoXXXXXXXXXoXXXXXXX.",
".oooooooooooXoooooooooooXXXXXXX.",
".oooooooooooXoooooooooooXXXXXXX.",
".oXXXXXXXXXoXoXXXXXXXXXoXXXXXXX.",
".oooooooooooXoooooooooooXXXXXXX.",
".oooooooooooXoooooooooooXXXXXXX.",
".oooooooooooXoooooooooooXXXXXXX.",
".oooooooooooXoooooooooooXXXXXXX.",
".oooooooooooXoooooooooooXXXXXXX.",
".oooooooooooXoooooooooooXXXXXXX.",
".o  ooooooooXo  ooooooooXXXXXXX.",
".o  ooooooooXo  ooooooooXXXXXXX.",
".o  ooooooooXo  ooooooooXXXXXXX.",
".oooooooooooXoooooooooooXXXXXXX.",
".oXXooooooooXoXXooooooooXXXXXXX.",
".oXXooooooooXoXXooooooooXXXXXXX.",
".oooooooooooXoooooooooooXXXXXXX.",
".oooooooooooXoooooooooooXXXXXXX.",
".oooooooooooXoooooooooooXXXXXXX.",
".oooooooooooXoooooooooooXXXXXXX.",
".oooooooooooXoooooooooooXXXXXXX.",
".oooooooooooXoooooooooooXXXXXXX.",
".oooooooooooXoooooooooooXXXXXXX.",
".oooooooooooXoooooooooooXXXXXXX.",
".oooooooooooXoooooooooooXXXXXXX.",
".oooooooooooXoooooooooooXXXXXXX.",
".oooooooooooXoooooooooooXXXXXXX.",
".oooooooooooXoooooooooooXXXXXXX.",
".oooooooooooXoooooooooooXXXXXXX.",
"................................"
};
